<svg xmlns="http://www.w3.org/2000/svg" width="50" height="50" fill="none"><g fill-opacity=".4" clip-path="url(#a)"><path fill="#3D59F5" d="M26.2 8.6A60 60 0 0 0 28.1 21c1.1 4.7 1.1 4.7 11.1 6.7s10 2 10-12.5S49.2.8 37.4.8C25.5.8 25.5.8 26.2 8.6Z"/><path fill="#623DF5" d="M13 17.6c12.3-1.8 12.3-1.8 11.7-9.3C24 .8 24 .8 12.4.8.8.8.8.8.8 10c0 9.2 0 9.2 12.3 7.5Z"/><path fill="#F5993D" d="M14.2 35.6C27.7 26 27.7 26 26.7 21.7c-1.1-4.4-1.1-4.4-13.5-2.6C.8 21 .8 21 .8 33s0 12 13.4 2.7Z"/><path fill="#71F53D" d="M39 29.4c-10.2-2.1-10.2-2.1-24.2 7.7-14 9.7-14 9.7-14 11 0 1.1 0 1.1 24.2 1.1s24.2 0 24.2-8.9 0-8.9-10.2-11Z"/></g><defs><clipPath id="a"><path fill="#fff" d="M0 0h50v50H0z"/></clipPath></defs></svg>